<svg xmlns="http://www.w3.org/2000/svg" viewBox="0 0 24 24"><path fill-rule="evenodd" clip-rule="evenodd" d="M2.00014 12.0064C1.97242 7.65451 6.06443 5 10.0001 5C12.0158 5 13.52 5.73073 14.5821 6.7929C15.3982 7.60895 15.9244 8.58999 16.2483 9.51562C17.3629 9.56492 18.6063 9.74833 19.6553 10.3037C20.3212 10.6562 20.9228 11.1656 21.3519 11.8876C21.7801 12.6082 22 13.4795 22 14.5C22 15.5798 21.6865 16.4522 21.1705 17.1295C20.6645 17.7936 20.008 18.213 19.4009 18.4787C18.7943 18.7441 18.2013 18.8719 17.7694 18.9348C17.5509 18.9667 17.367 18.9829 17.2344 18.9912C17.1679 18.9954 17.1138 18.9976 17.0742 18.9987C17.0544 18.9993 17.0381 18.9996 17.0257 18.9998L17.01 19L17.0043 19L17.002 19C17.0016 19 17.0001 19 17.0001 18L17.0001 19H9.00012C6.76294 19 4.98541 18.2406 3.77153 16.9191C2.57098 15.6121 2.01191 13.8541 2.00014 12.0064ZM10.0001 7C6.7349 7 3.98195 9.14472 4.0001 11.9936C4.00944 13.4596 4.4503 14.7016 5.24446 15.5661C6.02527 16.4162 7.23719 17 9.00012 17H16.9973L17.0159 16.9996C17.0349 16.999 17.0667 16.9978 17.1096 16.9951C17.1957 16.9897 17.3243 16.9786 17.4808 16.9558C17.7989 16.9094 18.2059 16.8184 18.5992 16.6463C18.9921 16.4745 19.3356 16.2376 19.5796 15.9174C19.8135 15.6103 20 15.1702 20 14.5C20 13.7705 19.8449 13.2668 19.6325 12.9093C19.4209 12.5532 19.1162 12.2813 18.7196 12.0713C17.8861 11.63 16.7222 11.5 15.5 11.5C15.0411 11.5 14.6412 11.1877 14.5299 10.7425C14.3096 9.86159 13.8789 8.91807 13.1679 8.2071C12.4801 7.51927 11.4843 7 10.0001 7Z" /></svg>