<svg xmlns="http://www.w3.org/2000/svg" viewBox="0 0 24 24"><path fill-rule="evenodd" clip-rule="evenodd" d="M17.5 4C16.9477 4 16.5 4.44772 16.5 5C16.5 5.55228 16.9477 6 17.5 6C18.0523 6 18.5 5.55228 18.5 5C18.5 4.44772 18.0523 4 17.5 4ZM14.5 5C14.5 3.34315 15.8431 2 17.5 2C19.1569 2 20.5 3.34315 20.5 5C20.5 6.30622 19.6652 7.41746 18.5 7.82929V10.1115C20.504 10.5662 22 12.3584 22 14.5C22 16.9853 19.9853 19 17.5 19C15.8004 19 14.3208 18.0577 13.5552 16.6671L7.98911 18.2574C7.85855 19.7938 6.57014 21 5 21C3.34315 21 2 19.6569 2 18C2 16.3431 3.34315 15 5 15C6.0348 15 6.94724 15.5239 7.48651 16.321L13.0065 14.7438C13.0022 14.6631 13 14.5818 13 14.5C13 14.0365 13.0701 13.5894 13.2002 13.1686L7.67801 9.48719C7.19907 9.81094 6.62161 10 6 10C4.34315 10 3 8.65685 3 7C3 5.34315 4.34315 4 6 4C7.65685 4 9 5.34315 9 7C9 7.30542 8.95436 7.60018 8.86953 7.87783L14.2052 11.435C14.8098 10.7854 15.6041 10.3148 16.5 10.1115V7.82929C15.3348 7.41746 14.5 6.30622 14.5 5ZM6 6C5.44772 6 5 6.44772 5 7C5 7.55228 5.44772 8 6 8C6.55228 8 7 7.55228 7 7C7 6.44772 6.55228 6 6 6ZM17.5 12C16.1193 12 15 13.1193 15 14.5C15 15.8807 16.1193 17 17.5 17C18.8807 17 20 15.8807 20 14.5C20 13.1193 18.8807 12 17.5 12ZM5 17C4.44772 17 4 17.4477 4 18C4 18.5523 4.44772 19 5 19C5.55228 19 6 18.5523 6 18C6 17.4477 5.55228 17 5 17Z" /></svg>