<svg xmlns="http://www.w3.org/2000/svg" width="20" height="20" viewBox="0 0 20 20" fill="none"><path fill-rule="evenodd" clip-rule="evenodd" d="M1.75441 2.12421C1.89632 1.84265 2.18474 1.66504 2.50004 1.66504H17.5C17.8153 1.66504 18.1038 1.84265 18.2457 2.12421C18.3876 2.40577 18.3588 2.74326 18.1713 2.99671L12.5017 10.6587V17.5C12.5017 17.7894 12.3519 18.0582 12.1057 18.2103C11.8595 18.3625 11.5521 18.3763 11.2933 18.2469L7.95995 16.5802C7.67707 16.4388 7.49838 16.1496 7.49838 15.8334V10.6587L1.82882 2.99671C1.64127 2.74326 1.61249 2.40577 1.75441 2.12421ZM4.15665 3.33504L9.0046 9.8867C9.11097 10.0304 9.16838 10.2045 9.16838 10.3834V15.3173L10.8317 16.149V10.3834C10.8317 10.2045 10.8891 10.0304 10.9955 9.8867L15.8434 3.33504H4.15665Z" fill="#696970"/></svg>