<svg xmlns="http://www.w3.org/2000/svg" viewBox="0 0 24 24"><path fill-rule="evenodd" clip-rule="evenodd" d="M11.6672 1.55701C11.8825 1.481 12.1175 1.481 12.3328 1.55701L20.8328 4.55701C21.2326 4.69812 21.5 5.07602 21.5 5.5V12C21.5 15.4877 19.0443 18.122 16.8575 19.7944C15.7388 20.6498 14.6261 21.3037 13.796 21.7432C13.3797 21.9636 13.0314 22.1316 12.7848 22.2456C12.6614 22.3027 12.5633 22.3462 12.4946 22.3761C12.4602 22.3911 12.4332 22.4026 12.4141 22.4107L12.3913 22.4203L12.3845 22.4231L12.3822 22.4241C12.3819 22.4242 12.3807 22.4247 12 21.5C11.6193 22.4247 11.6189 22.4246 11.6186 22.4244L11.6155 22.4231L11.6087 22.4203L11.5859 22.4107C11.5668 22.4026 11.5398 22.3911 11.5054 22.3761C11.4367 22.3462 11.3386 22.3027 11.2152 22.2456C10.9686 22.1316 10.6203 21.9636 10.204 21.7432C9.37386 21.3037 8.26115 20.6498 7.14255 19.7944C4.95568 18.122 2.5 15.4877 2.5 12V5.5C2.5 5.07602 2.76737 4.69812 3.16718 4.55701L11.6672 1.55701ZM12 21.5L11.6186 22.4244C11.8625 22.5248 12.1369 22.5251 12.3807 22.4247L12 21.5ZM12 20.4049C12.2149 20.3046 12.5101 20.1609 12.8602 19.9756C13.6239 19.5713 14.6362 18.9752 15.6425 18.2056C17.7057 16.628 19.5 14.5123 19.5 12V6.20752L12 3.56046L4.5 6.20752V12C4.5 14.5123 6.29432 16.628 8.35745 18.2056C9.36385 18.9752 10.3761 19.5713 11.1398 19.9756C11.4899 20.1609 11.7851 20.3046 12 20.4049ZM16.0369 8.15634C16.5028 8.45285 16.6402 9.07093 16.3437 9.53688L12.8437 15.0369C12.6808 15.2928 12.4106 15.4609 12.1091 15.494C11.8076 15.5271 11.5074 15.4216 11.2929 15.2071L8.29289 12.2071C7.90237 11.8166 7.90237 11.1834 8.29289 10.7929C8.68342 10.4024 9.31658 10.4024 9.70711 10.7929L11.8256 12.9114L14.6563 8.46312C14.9528 7.99718 15.5709 7.85983 16.0369 8.15634Z" /></svg>