<svg width="80" height="32" viewBox="0 0 80 32" fill="none" xmlns="http://www.w3.org/2000/svg"><path d="M3.164 14.64C2.66933 14.64 2.226 14.5467 1.834 14.36C1.45133 14.164 1.148 13.9027 0.924 13.576C0.709333 13.2493 0.602 12.8807 0.602 12.47C0.602 11.966 0.732667 11.5693 0.994 11.28C1.25533 10.9813 1.68 10.7667 2.268 10.636C2.856 10.5053 3.64467 10.44 4.634 10.44H5.124V10.146C5.124 9.67933 5.02133 9.34333 4.816 9.138C4.61067 8.93267 4.26533 8.83 3.78 8.83C3.39733 8.83 3.00533 8.89067 2.604 9.012C2.20267 9.124 1.79667 9.30133 1.386 9.544L0.882 8.354C1.12467 8.186 1.40933 8.04133 1.736 7.92C2.072 7.78933 2.422 7.69133 2.786 7.626C3.15933 7.55133 3.50933 7.514 3.836 7.514C4.83467 7.514 5.57667 7.74733 6.062 8.214C6.54733 8.67133 6.79 9.38533 6.79 10.356V14.5H5.152V13.408C4.99333 13.7907 4.74133 14.094 4.396 14.318C4.05067 14.5327 3.64 14.64 3.164 14.64ZM3.528 13.436C3.98533 13.436 4.36333 13.2773 4.662 12.96C4.97 12.6427 5.124 12.2413 5.124 11.756V11.448H4.648C3.77067 11.448 3.15933 11.518 2.814 11.658C2.478 11.7887 2.31 12.0313 2.31 12.386C2.31 12.694 2.41733 12.946 2.632 13.142C2.84667 13.338 3.14533 13.436 3.528 13.436ZM8.56625 14.5V4.63H10.3163V10.566H10.3443L13.1023 7.654H15.2163L12.1083 10.93L15.4123 14.5H13.2703L10.3443 11.448H10.3163V14.5H8.56625ZM18.2578 14.64C17.7631 14.64 17.3198 14.5467 16.9278 14.36C16.5451 14.164 16.2418 13.9027 16.0177 13.576C15.8031 13.2493 15.6958 12.8807 15.6958 12.47C15.6958 11.966 15.8264 11.5693 16.0878 11.28C16.3491 10.9813 16.7738 10.7667 17.3618 10.636C17.9498 10.5053 18.7384 10.44 19.7278 10.44H20.2178V10.146C20.2178 9.67933 20.1151 9.34333 19.9098 9.138C19.7044 8.93267 19.3591 8.83 18.8738 8.83C18.4911 8.83 18.0991 8.89067 17.6978 9.012C17.2964 9.124 16.8904 9.30133 16.4798 9.544L15.9758 8.354C16.2184 8.186 16.5031 8.04133 16.8298 7.92C17.1658 7.78933 17.5158 7.69133 17.8798 7.626C18.2531 7.55133 18.6031 7.514 18.9298 7.514C19.9284 7.514 20.6704 7.74733 21.1558 8.214C21.6411 8.67133 21.8838 9.38533 21.8838 10.356V14.5H20.2458V13.408C20.0871 13.7907 19.8351 14.094 19.4898 14.318C19.1444 14.5327 18.7338 14.64 18.2578 14.64ZM18.6218 13.436C19.0791 13.436 19.4571 13.2773 19.7558 12.96C20.0638 12.6427 20.2178 12.2413 20.2178 11.756V11.448H19.7418C18.8644 11.448 18.2531 11.518 17.9078 11.658C17.5718 11.7887 17.4038 12.0313 17.4038 12.386C17.4038 12.694 17.5111 12.946 17.7258 13.142C17.9404 13.338 18.2391 13.436 18.6218 13.436ZM23.688 14.5V7.654H25.396V8.704C25.6013 8.33067 25.886 8.04133 26.25 7.836C26.614 7.62133 27.034 7.514 27.51 7.514C28.5367 7.514 29.2087 7.962 29.526 8.858C29.7407 8.438 30.0487 8.11133 30.45 7.878C30.8513 7.63533 31.3087 7.514 31.822 7.514C33.362 7.514 34.132 8.452 34.132 10.328V14.5H32.382V10.398C32.382 9.87533 32.2933 9.49267 32.116 9.25C31.948 9.00733 31.6587 8.886 31.248 8.886C30.7907 8.886 30.4313 9.04933 30.17 9.376C29.9087 9.69333 29.778 10.1367 29.778 10.706V14.5H28.028V10.398C28.028 9.87533 27.9393 9.49267 27.762 9.25C27.594 9.00733 27.3093 8.886 26.908 8.886C26.4507 8.886 26.0913 9.04933 25.83 9.376C25.5687 9.69333 25.438 10.1367 25.438 10.706V14.5H23.688ZM38.1913 14.64C37.6967 14.64 37.2533 14.5467 36.8613 14.36C36.4787 14.164 36.1753 13.9027 35.9513 13.576C35.7367 13.2493 35.6293 12.8807 35.6293 12.47C35.6293 11.966 35.76 11.5693 36.0213 11.28C36.2827 10.9813 36.7073 10.7667 37.2953 10.636C37.8833 10.5053 38.672 10.44 39.6613 10.44H40.1513V10.146C40.1513 9.67933 40.0487 9.34333 39.8433 9.138C39.638 8.93267 39.2927 8.83 38.8073 8.83C38.4247 8.83 38.0327 8.89067 37.6313 9.012C37.23 9.124 36.824 9.30133 36.4133 9.544L35.9093 8.354C36.152 8.186 36.4367 8.04133 36.7633 7.92C37.0993 7.78933 37.4493 7.69133 37.8133 7.626C38.1867 7.55133 38.5367 7.514 38.8633 7.514C39.862 7.514 40.604 7.74733 41.0893 8.214C41.5747 8.67133 41.8173 9.38533 41.8173 10.356V14.5H40.1793V13.408C40.0207 13.7907 39.7687 14.094 39.4233 14.318C39.078 14.5327 38.6673 14.64 38.1913 14.64ZM38.5553 13.436C39.0127 13.436 39.3907 13.2773 39.6893 12.96C39.9973 12.6427 40.1513 12.2413 40.1513 11.756V11.448H39.6753C38.798 11.448 38.1867 11.518 37.8413 11.658C37.5053 11.7887 37.3373 12.0313 37.3373 12.386C37.3373 12.694 37.4447 12.946 37.6593 13.142C37.874 13.338 38.1727 13.436 38.5553 13.436ZM43.4816 6.184V4.476H45.4416V6.184H43.4816ZM43.5936 14.5V7.654H45.3436V14.5H43.5936Z" fill="black"/><path d="M4.446 28.5V17.736H0.09V15.81H11.106V17.736H6.75V28.5H4.446ZM15.2814 28.68C14.2854 28.68 13.4274 28.494 12.7074 28.122C11.9874 27.75 11.4294 27.222 11.0334 26.538C10.6494 25.854 10.4574 25.044 10.4574 24.108C10.4574 23.196 10.6434 22.398 11.0154 21.714C11.3994 21.03 11.9214 20.496 12.5814 20.112C13.2534 19.716 14.0154 19.518 14.8674 19.518C16.1154 19.518 17.0994 19.914 17.8194 20.706C18.5514 21.498 18.9174 22.578 18.9174 23.946V24.612H12.6174C12.7854 26.184 13.6854 26.97 15.3174 26.97C15.8094 26.97 16.3014 26.898 16.7934 26.754C17.2854 26.598 17.7354 26.358 18.1434 26.034L18.7734 27.546C18.3534 27.894 17.8254 28.17 17.1894 28.374C16.5534 28.578 15.9174 28.68 15.2814 28.68ZM14.9574 21.048C14.2974 21.048 13.7634 21.252 13.3554 21.66C12.9474 22.068 12.7014 22.62 12.6174 23.316H17.0454C16.9974 22.584 16.7934 22.026 16.4334 21.642C16.0854 21.246 15.5934 21.048 14.9574 21.048ZM24.7673 28.68C23.8433 28.68 23.0393 28.494 22.3553 28.122C21.6713 27.738 21.1433 27.198 20.7713 26.502C20.3993 25.806 20.2133 24.99 20.2133 24.054C20.2133 23.118 20.3993 22.314 20.7713 21.642C21.1433 20.958 21.6713 20.436 22.3553 20.076C23.0393 19.704 23.8433 19.518 24.7673 19.518C25.3313 19.518 25.8893 19.608 26.4413 19.788C26.9933 19.968 27.4493 20.22 27.8093 20.544L27.1433 22.11C26.8313 21.834 26.4773 21.624 26.0813 21.48C25.6973 21.336 25.3253 21.264 24.9653 21.264C24.1853 21.264 23.5793 21.51 23.1473 22.002C22.7273 22.482 22.5173 23.172 22.5173 24.072C22.5173 24.96 22.7273 25.662 23.1473 26.178C23.5793 26.682 24.1853 26.934 24.9653 26.934C25.3133 26.934 25.6853 26.862 26.0813 26.718C26.4773 26.574 26.8313 26.358 27.1433 26.07L27.8093 27.654C27.4493 27.966 26.9873 28.218 26.4233 28.41C25.8713 28.59 25.3193 28.68 24.7673 28.68ZM29.1895 28.5V15.81H31.4395V20.976C31.7395 20.496 32.1415 20.136 32.6455 19.896C33.1495 19.644 33.7075 19.518 34.3195 19.518C36.3955 19.518 37.4335 20.724 37.4335 23.136V28.5H35.1835V23.244C35.1835 22.56 35.0515 22.062 34.7875 21.75C34.5355 21.438 34.1395 21.282 33.5995 21.282C32.9395 21.282 32.4115 21.492 32.0155 21.912C31.6315 22.32 31.4395 22.866 31.4395 23.55V28.5H29.1895ZM39.9348 28.5V15.81H44.6508C46.7748 15.81 48.4128 16.356 49.5648 17.448C50.7288 18.54 51.3108 20.106 51.3108 22.146C51.3108 24.174 50.7288 25.74 49.5648 26.844C48.4128 27.948 46.7748 28.5 44.6508 28.5H39.9348ZM42.2388 26.592H44.5068C47.4348 26.592 48.8988 25.11 48.8988 22.146C48.8988 19.194 47.4348 17.718 44.5068 17.718H42.2388V26.592ZM57.4438 28.68C56.5318 28.68 55.7398 28.494 55.0678 28.122C54.3958 27.75 53.8738 27.222 53.5018 26.538C53.1298 25.842 52.9438 25.026 52.9438 24.09C52.9438 23.154 53.1298 22.344 53.5018 21.66C53.8738 20.976 54.3958 20.448 55.0678 20.076C55.7398 19.704 56.5318 19.518 57.4438 19.518C58.3558 19.518 59.1478 19.704 59.8198 20.076C60.4918 20.448 61.0138 20.976 61.3858 21.66C61.7578 22.344 61.9438 23.154 61.9438 24.09C61.9438 25.026 61.7578 25.842 61.3858 26.538C61.0138 27.222 60.4918 27.75 59.8198 28.122C59.1478 28.494 58.3558 28.68 57.4438 28.68ZM57.4438 26.97C58.1158 26.97 58.6558 26.73 59.0638 26.25C59.4718 25.758 59.6758 25.038 59.6758 24.09C59.6758 23.13 59.4718 22.416 59.0638 21.948C58.6558 21.468 58.1158 21.228 57.4438 21.228C56.7718 21.228 56.2318 21.468 55.8238 21.948C55.4158 22.416 55.2118 23.13 55.2118 24.09C55.2118 25.038 55.4158 25.758 55.8238 26.25C56.2318 26.73 56.7718 26.97 57.4438 26.97ZM67.8689 28.68C66.9449 28.68 66.1409 28.494 65.4569 28.122C64.7729 27.738 64.2449 27.198 63.8729 26.502C63.5009 25.806 63.3149 24.99 63.3149 24.054C63.3149 23.118 63.5009 22.314 63.8729 21.642C64.2449 20.958 64.7729 20.436 65.4569 20.076C66.1409 19.704 66.9449 19.518 67.8689 19.518C68.4329 19.518 68.9909 19.608 69.5429 19.788C70.0949 19.968 70.5509 20.22 70.9109 20.544L70.2449 22.11C69.9329 21.834 69.5789 21.624 69.1829 21.48C68.7989 21.336 68.4269 21.264 68.0669 21.264C67.2869 21.264 66.6809 21.51 66.2489 22.002C65.8289 22.482 65.6189 23.172 65.6189 24.072C65.6189 24.96 65.8289 25.662 66.2489 26.178C66.6809 26.682 67.2869 26.934 68.0669 26.934C68.4149 26.934 68.7869 26.862 69.1829 26.718C69.5789 26.574 69.9329 26.358 70.2449 26.07L70.9109 27.654C70.5509 27.966 70.0889 28.218 69.5249 28.41C68.9729 28.59 68.4209 28.68 67.8689 28.68ZM75.5131 28.68C74.7691 28.68 74.0731 28.59 73.4251 28.41C72.7771 28.23 72.2371 27.972 71.8051 27.636L72.3811 26.16C72.8251 26.46 73.3231 26.694 73.8751 26.862C74.4271 27.018 74.9791 27.096 75.5311 27.096C76.1071 27.096 76.5331 27 76.8091 26.808C77.0971 26.604 77.2411 26.34 77.2411 26.016C77.2411 25.512 76.8691 25.188 76.1251 25.044L74.3251 24.702C72.8011 24.414 72.0391 23.622 72.0391 22.326C72.0391 21.75 72.1951 21.252 72.5071 20.832C72.8311 20.412 73.2751 20.088 73.8391 19.86C74.4031 19.632 75.0511 19.518 75.7831 19.518C76.4071 19.518 77.0071 19.608 77.5831 19.788C78.1591 19.956 78.6511 20.214 79.0591 20.562L78.4471 22.038C78.0991 21.75 77.6791 21.522 77.1871 21.354C76.7071 21.186 76.2451 21.102 75.8011 21.102C75.2131 21.102 74.7751 21.204 74.4871 21.408C74.2111 21.612 74.0731 21.882 74.0731 22.218C74.0731 22.746 74.4151 23.07 75.0991 23.19L76.8991 23.532C77.6791 23.676 78.2671 23.94 78.6631 24.324C79.0711 24.708 79.2751 25.224 79.2751 25.872C79.2751 26.748 78.9331 27.438 78.2491 27.942C77.5651 28.434 76.6531 28.68 75.5131 28.68Z" fill="black"/></svg> 